<?xml version="1.0" encoding="iso-8859-1"?>
<!-- Generator: Adobe Illustrator 18.1.1, SVG Export Plug-In . SVG Version: 6.00 Build 0)  -->
<svg version="1.1" id="Capa_1" xmlns="http://www.w3.org/2000/svg" xmlns:xlink="http://www.w3.org/1999/xlink" x="0px" y="0px"
	 viewBox="0 0 107.394 107.394" style="enable-background:new 0 0 107.394 107.394;" xml:space="preserve">
<g>
	<path style="fill:#5E5CDB;" d="M53.627,0c-0.601,0-1.195,0.047-1.789,0.1V0H53.627z M55.417,0h-1.789
		c0.601,0,1.195,0.047,1.789,0.1V0z M60.849,98.447v5.368h7.158v3.579H39.376v-3.579h7.158v-5.368h-36.01V44.764h4.935v-8.206
		l38.236,8.167l38.24-8.167v8.206h4.935v53.683C96.871,98.447,60.849,98.447,60.849,98.447z M19.034,48.343v39.085l32.868,7.018
		V48.343V48l-15.153-3.235l-17.712-3.783v3.783v3.579H19.034z M70.634,44.764L55.485,48v0.344v46.103l32.872-7.018V48.343v-3.579
		v-3.783L70.634,44.764z M84.502,51.757l-1.124-3.396l-23.57,7.784l1.124,3.396L84.502,51.757z M84.502,61.352l-1.124-3.396
		l-23.57,7.788l1.124,3.396L84.502,61.352z M84.488,70.94l-1.124-3.393l-23.556,7.784l1.124,3.396L84.488,70.94z M84.488,80.538
		l-1.124-3.396L59.808,84.93l1.124,3.393L84.488,80.538z M47.579,56.145l-23.57-7.784l-1.12,3.396l23.57,7.784L47.579,56.145z
		 M47.579,65.736l-23.57-7.784l-1.12,3.396l23.57,7.78L47.579,65.736z M22.903,70.94l23.556,7.788l1.12-3.396l-23.556-7.784
		L22.903,70.94z M22.903,80.538l23.556,7.784l1.12-3.393l-23.556-7.788L22.903,80.538z M33.35,20.278
		c0-4.18,1.367-8.142,3.837-11.606l-0.079-0.097l0.941-1.138c0.004-0.004,0.011-0.011,0.014-0.014l1.371-1.661l0.075,0.089
		c3.357-3.314,7.698-5.332,12.333-5.748c0.594-0.054,1.188-0.1,1.789-0.1c0.601,0,1.195,0.047,1.789,0.1
		c4.635,0.419,8.983,2.437,12.336,5.748l0.075-0.089l1.367,1.661c0.004,0.004,0.011,0.007,0.014,0.014l0.941,1.138l-0.075,0.097
		c2.466,3.464,3.829,7.426,3.829,11.606c0,4.184-1.364,8.145-3.829,11.61l0.075,0.097l-0.941,1.138
		c-0.004,0.004-0.011,0.011-0.014,0.014l-1.367,1.661l-0.075-0.093c-3.794,3.736-8.833,5.851-14.126,5.851
		s-10.332-2.115-14.122-5.851l-0.075,0.093l-1.371-1.661c-0.004-0.004-0.011-0.007-0.014-0.014l-0.941-1.138l0.079-0.097
		C34.717,28.423,33.35,24.461,33.35,20.278z M39.587,29.175c0.247-0.243,0.537-0.429,0.802-0.659
		c0.372-0.333,0.759-0.648,1.156-0.952c0.623-0.476,1.27-0.902,1.943-1.299c0.412-0.243,0.812-0.49,1.235-0.701
		c0.752-0.379,1.535-0.68,2.33-0.959c0.372-0.132,0.741-0.301,1.124-0.412c1.195-0.34,2.416-0.594,3.661-0.709v-0.079v-1.424h-14.82
		C37.29,24.533,38.159,26.97,39.587,29.175z M51.838,27.088c-0.007,0-0.014,0-0.021,0c-0.827,0.093-1.643,0.272-2.448,0.487
		c-0.197,0.054-0.383,0.107-0.573,0.165c-0.787,0.243-1.56,0.53-2.301,0.891c-0.079,0.039-0.154,0.089-0.233,0.129
		c-0.673,0.344-1.331,0.744-1.965,1.181c-0.157,0.107-0.315,0.215-0.469,0.329c-0.669,0.497-1.306,1.038-1.904,1.636
		c-0.029,0.029-0.057,0.061-0.082,0.089c2.724,2.752,6.234,4.47,9.996,4.885C51.838,36.88,51.838,27.088,51.838,27.088z
		 M65.412,31.999c-0.029-0.029-0.057-0.064-0.079-0.089c-0.598-0.598-1.238-1.138-1.904-1.636c-0.154-0.115-0.311-0.222-0.469-0.329
		c-0.633-0.437-1.285-0.834-1.965-1.181c-0.075-0.039-0.154-0.089-0.229-0.129c-0.741-0.358-1.517-0.648-2.305-0.891
		c-0.193-0.061-0.379-0.115-0.573-0.165c-0.802-0.218-1.61-0.394-2.444-0.487c-0.014,0-0.021,0-0.029,0v9.792
		C59.182,36.465,62.703,34.747,65.412,31.999z M70.24,21.985H55.417v1.507c1.256,0.115,2.469,0.369,3.665,0.709
		c0.387,0.111,0.752,0.279,1.127,0.412c0.798,0.279,1.578,0.58,2.326,0.959c0.422,0.211,0.82,0.458,1.231,0.701
		c0.673,0.397,1.321,0.82,1.95,1.299c0.397,0.301,0.78,0.619,1.152,0.952c0.258,0.229,0.548,0.415,0.802,0.659
		C69.106,26.97,69.975,24.533,70.24,21.985z M67.678,11.384c-0.748,0.73-1.56,1.371-2.391,1.968c-0.197,0.14-0.383,0.276-0.58,0.404
		c-0.837,0.558-1.714,1.07-2.613,1.496c-0.104,0.05-0.218,0.086-0.326,0.132c-0.834,0.372-1.704,0.68-2.584,0.938
		c-0.218,0.064-0.429,0.132-0.651,0.186c-0.97,0.247-1.95,0.429-2.949,0.526c-0.057,0.004-0.107,0.025-0.168,0.029v0.079v1.26
		h14.806C69.936,15.919,69.074,13.539,67.678,11.384z M55.417,13.467c0.007,0,0.014,0,0.029,0c0.83-0.093,1.65-0.272,2.455-0.49
		c0.19-0.05,0.372-0.104,0.555-0.161c0.791-0.243,1.568-0.533,2.316-0.895c0.068-0.032,0.125-0.075,0.197-0.107
		c0.691-0.347,1.36-0.755,2.004-1.199c0.15-0.104,0.304-0.208,0.451-0.315c0.673-0.497,1.31-1.038,1.911-1.639
		c0.032-0.029,0.054-0.064,0.079-0.093c-2.713-2.752-6.227-4.47-9.996-4.885V13.467z M41.842,8.564
		c0.036,0.029,0.061,0.064,0.082,0.093c0.601,0.598,1.245,1.142,1.908,1.639c0.15,0.111,0.304,0.211,0.455,0.315
		c0.644,0.447,1.306,0.852,2.008,1.199c0.068,0.032,0.125,0.075,0.197,0.107c0.748,0.361,1.528,0.651,2.312,0.895
		c0.19,0.057,0.372,0.111,0.555,0.161c0.809,0.218,1.621,0.397,2.459,0.49c0.007,0,0.014,0,0.021,0V3.675
		C48.08,4.094,44.562,5.812,41.842,8.564z M37.043,18.406h14.806v-1.26v-0.079c-0.061-0.004-0.107-0.025-0.168-0.029
		c-0.998-0.097-1.986-0.279-2.949-0.526c-0.222-0.057-0.429-0.125-0.651-0.186c-0.88-0.258-1.739-0.565-2.584-0.938
		c-0.1-0.05-0.222-0.082-0.326-0.132c-0.905-0.426-1.772-0.938-2.613-1.496c-0.197-0.132-0.383-0.268-0.58-0.404
		c-0.83-0.598-1.643-1.238-2.391-1.968C38.192,13.539,37.329,15.919,37.043,18.406z"/>
</g>
<g>
</g>
<g>
</g>
<g>
</g>
<g>
</g>
<g>
</g>
<g>
</g>
<g>
</g>
<g>
</g>
<g>
</g>
<g>
</g>
<g>
</g>
<g>
</g>
<g>
</g>
<g>
</g>
<g>
</g>
</svg>
