<?xml version="1.0" standalone="no"?>
<!DOCTYPE svg PUBLIC "-//W3C//DTD SVG 20010904//EN"
 "http://www.w3.org/TR/2001/REC-SVG-20010904/DTD/svg10.dtd">
<svg version="1.0" xmlns="http://www.w3.org/2000/svg"
 width="512.000000pt" height="512.000000pt" viewBox="0 0 512.000000 512.000000"
 preserveAspectRatio="xMidYMid meet">

<g transform="translate(0.000000,512.000000) scale(0.100000,-0.100000)"
fill="#000000" stroke="none">
<path d="M0 2560 l0 -2560 2560 0 2560 0 0 2560 0 2560 -2560 0 -2560 0 0
-2560z m1465 2290 c381 -134 688 -380 865 -695 33 -57 33 -59 10 -44 -130 85
-190 121 -321 194 -223 124 -556 265 -758 321 l-61 17 0 143 0 143 88 -24 c48
-13 128 -38 177 -55z m2455 -63 l0 -144 -61 -17 c-280 -78 -705 -274 -989
-457 -47 -30 -92 -59 -99 -64 -21 -12 41 95 107 188 207 290 551 507 982 621
30 8 56 15 58 15 1 1 2 -64 2 -142z m-3127 -217 c317 -65 661 -180 967 -322
243 -114 516 -286 637 -403 l73 -70 0 -98 0 -97 -102 0 c-56 0 -115 -5 -132
-11 -29 -10 -88 14 -911 376 -484 213 -884 391 -888 395 -7 6 150 212 183 237
22 17 64 16 173 -7z m3719 -7 c57 -61 177 -218 170 -224 -4 -3 -403 -180 -887
-393 -802 -353 -882 -386 -909 -376 -16 5 -76 10 -132 10 l-104 0 0 96 0 96
63 63 c157 153 514 364 854 503 167 69 431 155 604 196 279 68 303 69 341 29z
m-3354 -1420 l632 -298 0 -327 c0 -181 -2 -328 -4 -328 -2 0 -289 134 -637
298 l-634 298 -3 327 c-1 180 1 327 5 327 5 0 293 -134 641 -297z m3450 -30
l-3 -327 -630 -297 c-346 -164 -633 -298 -637 -298 -5 -1 -8 146 -8 327 l0
327 628 297 c345 163 633 297 640 297 10 1 12 -67 10 -326z m-1798 -298 l0
-85 -250 0 -250 0 0 85 0 85 250 0 250 0 0 -85z m0 -2050 l0 -85 -250 0 -250
0 0 85 0 85 250 0 250 0 0 -85z"/>
</g>
</svg>
